<?xml version="1.0" encoding="UTF-8" standalone="no"?>
<svg
   xmlns:dc="http://purl.org/dc/elements/1.1/"
   xmlns:cc="http://creativecommons.org/ns#"
   xmlns:rdf="http://www.w3.org/1999/02/22-rdf-syntax-ns#"
   xmlns:svg="http://www.w3.org/2000/svg"
   xmlns="http://www.w3.org/2000/svg"
   xmlns:sodipodi="http://sodipodi.sourceforge.net/DTD/sodipodi-0.dtd"
   xmlns:inkscape="http://www.inkscape.org/namespaces/inkscape"
   width="30"
   height="30"
   viewBox="0 0 30 30"
   fill="none"
   version="1.1"
   id="svg4"
   sodipodi:docname="fb.svg"
   inkscape:version="0.92.5 (2060ec1f9f, 2020-04-08)">
  <metadata
     id="metadata10">
    <rdf:RDF>
      <cc:Work
         rdf:about="">
        <dc:format>image/svg+xml</dc:format>
        <dc:type
           rdf:resource="http://purl.org/dc/dcmitype/StillImage" />
      </cc:Work>
    </rdf:RDF>
  </metadata>
  <defs
     id="defs8" />
  <sodipodi:namedview
     pagecolor="#ffffff"
     bordercolor="#666666"
     borderopacity="1"
     objecttolerance="10"
     gridtolerance="10"
     guidetolerance="10"
     inkscape:pageopacity="0"
     inkscape:pageshadow="2"
     inkscape:window-width="1920"
     inkscape:window-height="1016"
     id="namedview6"
     showgrid="false"
     inkscape:zoom="7.8666667"
     inkscape:cx="15"
     inkscape:cy="15"
     inkscape:window-x="0"
     inkscape:window-y="27"
     inkscape:window-maximized="1"
     inkscape:current-layer="svg4" />
  <path
     d="M25.6055 0H4.39453C1.97159 0 0 1.97159 0 4.39453V25.6055C0 28.0284 1.97159 30 4.39453 30H13.2422V19.3945H9.72656V14.1211H13.2422V10.5469C13.2422 7.63893 15.6077 5.27344 18.5156 5.27344H23.8477V10.5469H18.5156V14.1211H23.8477L22.9688 19.3945H18.5156V30H25.6055C28.0284 30 30 28.0284 30 25.6055V4.39453C30 1.97159 28.0284 0 25.6055 0Z"
     fill="#21243D"
     id="path2" />
  <path
     style="fill:#ffffff;stroke-width:0.12711865"
     d="M 3.3708689,29.810392 C 2.2102893,29.537109 1.2018253,28.746642 0.60178041,27.639894 L 0.16525424,26.834746 V 15.012712 3.190678 L 0.45187701,2.6090378 C 0.89247381,1.71494 1.5292382,1.0544147 2.4119475,0.57582709 L 3.2161017,0.13983051 H 14.974576 26.733051 l 0.599648,0.27702623 c 0.894298,0.41314962 1.787374,1.31562456 2.212277,2.23556126 l 0.366041,0.7924973 V 15.015385 26.585854 l -0.414366,0.841698 c -0.48225,0.979589 -1.171387,1.651864 -2.176311,2.123062 l -0.714408,0.334979 -4.036017,0.03839 -4.036017,0.03839 V 24.683276 19.40418 l 2.252274,-0.03471 2.252275,-0.03471 0.409295,-2.415254 c 0.225113,-1.32839 0.412861,-2.515361 0.417219,-2.637712 0.0073,-0.205054 -0.200927,-0.222458 -2.661571,-0.222458 H 18.533898 V 12.34322 10.627119 h 2.669492 2.669491 V 7.8940678 5.1610169 l -2.637712,9.662e-4 c -1.450741,5.338e-4 -3.009533,0.05931 -3.463983,0.1306255 -1.082876,0.169934 -2.21851,0.7326951 -2.966345,1.4699661 -1.310519,1.2920014 -1.609926,2.26391 -1.609926,5.2259973 v 2.07075 H 11.415254 9.6355932 v 2.669492 2.669491 h 1.7796608 1.779661 v 5.275424 5.275424 l -4.6716099,-0.01277 c -2.5693856,-0.007 -4.8879819,-0.06372 -5.1524362,-0.125991 z"
     id="path12"
     inkscape:connector-curvature="0" />
</svg>
