<?xml version="1.0" encoding="UTF-8" standalone="no"?>
<svg
   xmlns:dc="http://purl.org/dc/elements/1.1/"
   xmlns:cc="http://creativecommons.org/ns#"
   xmlns:rdf="http://www.w3.org/1999/02/22-rdf-syntax-ns#"
   xmlns:svg="http://www.w3.org/2000/svg"
   xmlns="http://www.w3.org/2000/svg"
   xmlns:sodipodi="http://sodipodi.sourceforge.net/DTD/sodipodi-0.dtd"
   xmlns:inkscape="http://www.inkscape.org/namespaces/inkscape"
   width="30"
   height="30"
   viewBox="0 0 30 30"
   fill="none"
   version="1.1"
   id="svg8"
   sodipodi:docname="insta.svg"
   inkscape:version="0.92.5 (2060ec1f9f, 2020-04-08)">
  <metadata
     id="metadata14">
    <rdf:RDF>
      <cc:Work
         rdf:about="">
        <dc:format>image/svg+xml</dc:format>
        <dc:type
           rdf:resource="http://purl.org/dc/dcmitype/StillImage" />
      </cc:Work>
    </rdf:RDF>
  </metadata>
  <defs
     id="defs12" />
  <sodipodi:namedview
     pagecolor="#ffffff"
     bordercolor="#666666"
     borderopacity="1"
     objecttolerance="10"
     gridtolerance="10"
     guidetolerance="10"
     inkscape:pageopacity="0"
     inkscape:pageshadow="2"
     inkscape:window-width="1920"
     inkscape:window-height="1016"
     id="namedview10"
     showgrid="false"
     inkscape:zoom="7.8666667"
     inkscape:cx="15"
     inkscape:cy="15"
     inkscape:window-x="0"
     inkscape:window-y="27"
     inkscape:window-maximized="1"
     inkscape:current-layer="svg8" />
  <path
     d="M21.7209 0H8.27874C3.71384 0 0 3.71402 0 8.27892V21.7211C0 26.2862 3.71384 30 8.27874 30H21.7209C26.2862 30 30 26.286 30 21.7211V8.27892C30.0002 3.71402 26.2862 0 21.7209 0ZM27.3384 21.7211C27.3384 24.8185 24.8185 27.3383 21.7211 27.3383H8.27874C5.18153 27.3384 2.66175 24.8185 2.66175 21.7211V8.27892C2.66175 5.18171 5.18153 2.66175 8.27874 2.66175H21.7209C24.8183 2.66175 27.3383 5.18171 27.3383 8.27892V21.7211H27.3384Z"
     fill="#21243D"
     id="path2" />
  <path
     d="M14.9998 7.27014C10.7373 7.27014 7.26953 10.7379 7.26953 15.0004C7.26953 19.2627 10.7373 22.7303 14.9998 22.7303C19.2623 22.7303 22.73 19.2627 22.73 15.0004C22.73 10.7379 19.2623 7.27014 14.9998 7.27014ZM14.9998 20.0683C12.2051 20.0683 9.93128 17.7949 9.93128 15.0002C9.93128 12.2054 12.2049 9.93171 14.9998 9.93171C17.7946 9.93171 20.0683 12.2054 20.0683 15.0002C20.0683 17.7949 17.7944 20.0683 14.9998 20.0683Z"
     fill="#21243D"
     id="path4" />
  <path
     d="M23.0545 5.01318C22.5417 5.01318 22.0379 5.2208 21.6757 5.58457C21.3118 5.94657 21.1025 6.45053 21.1025 6.96513C21.1025 7.47814 21.3119 7.98192 21.6757 8.34569C22.0377 8.70769 22.5417 8.91708 23.0545 8.91708C23.5691 8.91708 24.0713 8.70769 24.435 8.34569C24.7988 7.98192 25.0064 7.47796 25.0064 6.96513C25.0064 6.45053 24.7988 5.94657 24.435 5.58457C24.073 5.2208 23.5691 5.01318 23.0545 5.01318Z"
     fill="#21243D"
     id="path6" />
  <path
     style="fill:#ffffff;stroke-width:0.12711865"
     d="M 6.6483051,29.758558 C 3.7315953,29.106995 1.6162186,27.259143 0.49866331,24.386638 L 0.16525424,23.529661 0.12902176,15.35098 C 0.0883644,6.173476 0.0648535,6.4616287 1.0119473,4.5297266 1.7336495,3.057583 3.0467989,1.7341613 4.5149352,0.99933587 6.39397,0.05884914 6.3760203,0.06032543 15.419492,0.10249082 l 8.008474,0.0373397 1.041753,0.40170976 c 2.068229,0.79752912 3.709847,2.27589012 4.596926,4.13976612 0.862401,1.8120234 0.844372,1.5900646 0.844372,10.3949646 v 7.944915 l -0.296386,0.95339 c -0.691609,2.224714 -2.252672,4.097169 -4.227343,5.07059 -1.813095,0.893771 -1.892494,0.900571 -10.412712,0.891674 C 9.13975,29.93074 7.2366909,29.89 6.6483051,29.758558 Z M 23.022038,27.217161 c 1.613096,-0.420158 3.02492,-1.507291 3.707957,-2.855198 0.663783,-1.309913 0.697607,-1.762354 0.700002,-9.36368 0.0013,-4.133519 -0.04985,-7.2866912 -0.124758,-7.6906783 C 27.011034,5.7209564 25.918061,4.1743011 24.506615,3.3473 23.289542,2.6341864 23.084148,2.6185097 14.979648,2.6201528 7.0628689,2.621758 6.9197614,2.6314687 5.6949153,3.2501779 4.3668824,3.92101 3.4048749,5.0555926 2.9043688,6.541322 2.6419754,7.3202249 2.6374022,7.4915858 2.6721655,15.24209 l 0.035462,7.906215 0.4598882,0.95339 c 0.7712198,1.598808 2.3269627,2.85329 3.925705,3.165515 0.3146187,0.06144 3.8635113,0.117981 7.8864273,0.125641 6.106299,0.01163 7.434636,-0.01739 8.04239,-0.17569 z"
     id="path16"
     inkscape:connector-curvature="0" />
  <path
     style="fill:#ffffff;stroke-width:0.12711865"
     d="M 22.222873,8.6248025 C 20.605574,7.8122434 21.001907,5.42812 22.811138,5.0861219 c 0.570612,-0.1078626 1.497111,0.3301679 1.82059,0.8607388 0.740811,1.2150838 -0.180197,2.9002018 -1.585118,2.9002018 -0.209746,0 -0.580427,-0.100017 -0.823737,-0.22226 z"
     id="path18"
     inkscape:connector-curvature="0" />
  <path
     style="fill:#ffffff;stroke-width:0.12711865"
     d="M 14.021186,22.614717 C 12.486452,22.411162 10.783682,21.559403 9.624475,20.415394 6.5788866,17.409735 6.5791497,12.642185 9.6250712,9.6094589 12.637727,6.6098542 17.275035,6.5821598 20.338426,9.5454779 c 2.094075,2.0256661 2.854484,5.1228581 1.921966,7.8282781 -0.465039,1.349166 -1.10013,2.317057 -2.154007,3.282744 -1.624725,1.488765 -3.959624,2.240136 -6.085199,1.958217 z m 1.85765,-2.58149 c 2.744,-0.512113 4.512854,-2.975132 4.153311,-5.783227 -0.349854,-2.732406 -3.136964,-4.7876418 -5.816716,-4.2892897 -1.771414,0.3294287 -3.018669,1.2518377 -3.782506,2.7973567 -0.4587192,0.928155 -0.4795056,1.025739 -0.4788541,2.248052 5.975e-4,1.124694 0.042237,1.366657 0.3475421,2.01963 0.707139,1.512397 1.860741,2.503077 3.374552,2.897969 1.012974,0.264244 1.297716,0.2784 2.202671,0.109509 z"
     id="path20"
     inkscape:connector-curvature="0" />
</svg>
