<?xml version="1.0" encoding="UTF-8" standalone="no"?>
<svg
   xmlns:dc="http://purl.org/dc/elements/1.1/"
   xmlns:cc="http://creativecommons.org/ns#"
   xmlns:rdf="http://www.w3.org/1999/02/22-rdf-syntax-ns#"
   xmlns:svg="http://www.w3.org/2000/svg"
   xmlns="http://www.w3.org/2000/svg"
   xmlns:sodipodi="http://sodipodi.sourceforge.net/DTD/sodipodi-0.dtd"
   xmlns:inkscape="http://www.inkscape.org/namespaces/inkscape"
   width="30"
   height="30"
   viewBox="0 0 30 30"
   fill="none"
   version="1.1"
   id="svg4"
   sodipodi:docname="linkedin.svg"
   inkscape:version="0.92.5 (2060ec1f9f, 2020-04-08)">
  <metadata
     id="metadata10">
    <rdf:RDF>
      <cc:Work
         rdf:about="">
        <dc:format>image/svg+xml</dc:format>
        <dc:type
           rdf:resource="http://purl.org/dc/dcmitype/StillImage" />
      </cc:Work>
    </rdf:RDF>
  </metadata>
  <defs
     id="defs8" />
  <sodipodi:namedview
     pagecolor="#ffffff"
     bordercolor="#666666"
     borderopacity="1"
     objecttolerance="10"
     gridtolerance="10"
     guidetolerance="10"
     inkscape:pageopacity="0"
     inkscape:pageshadow="2"
     inkscape:window-width="1920"
     inkscape:window-height="1016"
     id="namedview6"
     showgrid="false"
     inkscape:zoom="7.8666667"
     inkscape:cx="15"
     inkscape:cy="15"
     inkscape:window-x="0"
     inkscape:window-y="27"
     inkscape:window-maximized="1"
     inkscape:current-layer="svg4" />
  <path
     d="M25.6055 0H4.39453C1.97159 0 0 1.97159 0 4.39453V25.6055C0 28.0284 1.97159 30 4.39453 30H25.6055C28.0284 30 30 28.0284 30 25.6055V4.39453C30 1.97159 28.0284 0 25.6055 0ZM10.6055 23.7891H7.08984V11.4844H10.6055V23.7891ZM10.6055 9.72656H7.08984V6.21094H10.6055V9.72656ZM22.9102 23.7891H19.3945V16.7578C19.3945 15.7887 18.6058 15 17.6367 15C16.6676 15 15.8789 15.7887 15.8789 16.7578V23.7891H12.3633V11.4844H15.8789V12.147C16.7999 11.8607 17.3982 11.4844 18.5156 11.4844C20.8999 11.4869 22.9102 13.6258 22.9102 16.1536V23.7891Z"
     fill="#21243D"
     id="path2" />
  <path
     style="fill:#ffffff;stroke-width:0.12711865"
     d="M 3.3708689,29.811728 C 2.2068955,29.534411 1.2013326,28.745733 0.60178041,27.639894 L 0.16525424,26.834746 V 15.012712 3.190678 L 0.45187701,2.6090378 C 0.89247381,1.71494 1.5292382,1.0544147 2.4119475,0.57582709 L 3.2161017,0.13983051 H 14.974576 26.733051 l 0.599648,0.27702623 c 0.894298,0.41314962 1.787374,1.31562456 2.212277,2.23556126 l 0.366041,0.7924973 V 15.015385 26.585854 l -0.414366,0.841698 c -0.48225,0.979589 -1.171387,1.651864 -2.176311,2.123062 l -0.714408,0.334979 -11.377118,0.02035 C 8.8352561,29.917381 3.641077,29.876106 3.3708689,29.811728 Z M 10.652542,17.618644 V 11.389831 H 8.8728814 7.0932203 v 6.228813 6.228814 h 1.7796611 1.7796606 z m 5.338983,2.368838 c 0,-3.721895 0.0095,-3.872048 0.265462,-4.197455 0.765514,-0.973192 2.170837,-0.929427 2.790532,0.08691 0.231398,0.379504 0.248173,0.662145 0.248616,4.188744 l 4.75e-4,3.78178 h 1.850727 1.850728 l -0.03929,-4.417373 -0.03929,-4.417373 -0.347543,-0.741851 c -0.700218,-1.494658 -1.658861,-2.318777 -3.138109,-2.697743 -0.90057,-0.230715 -1.507842,-0.183209 -2.640798,0.206585 -0.39281,0.135147 -0.729867,0.245721 -0.749017,0.245721 -0.01915,0 -0.0531,-0.128708 -0.07544,-0.286017 -0.03968,-0.279397 -0.08255,-0.286834 -1.852062,-0.321287 l -1.81144,-0.03527 v 6.232303 6.232305 h 1.84322 1.84322 z M 10.652542,7.9576271 V 6.1779661 H 8.8728814 7.0932203 v 1.779661 1.779661 h 1.7796611 1.7796606 z"
     id="path12"
     inkscape:connector-curvature="0" />
</svg>
